<svg viewBox="0 0 400 300" fill="none" xmlns="http://www.w3.org/2000/svg"><path clip-rule="evenodd" d="M82.625 178.042c-39.396 13.282-48.888 28.063-28.476 44.343.214 0-15.63-12.639 28.476-24.849-.143 0-.143-6.498 0-19.494Z" stroke="#143C9B" stroke-width=".856"/><g filter="url(#a)"><path d="M76.416 106.495c18.802 0 34.043-15.25 34.043-34.06 0-18.811-15.241-34.06-34.043-34.06-18.801 0-34.043 15.249-34.043 34.06 0 18.81 15.242 34.06 34.043 34.06Z" fill="#FFC60A"/></g><g filter="url(#b)"><path d="M59.594 75.675a3.628 3.628 0 1 0 3.065-6.578 3.628 3.628 0 0 0-3.065 6.578Z" fill="#fff"/></g><g filter="url(#c)"><path d="M74.103 75.675a3.628 3.628 0 1 0 3.066-6.578 3.628 3.628 0 0 0-3.066 6.578Z" fill="#fff"/></g><g filter="url(#d)"><path d="M88.613 75.675a3.628 3.628 0 1 0 3.066-6.578 3.628 3.628 0 0 0-3.066 6.578Z" fill="#fff"/></g><path d="M331.555 140.769c4.182 0 7.571 2.825 7.571 6.309v106.058c0 3.484-3.389 6.308-7.571 6.308H111.316m-29.119-15.852V97.92a6.849 6.849 0 0 1 6.849-6.849h42.396" stroke="#143C9B" stroke-width=".856"/><path d="m314.502 140.769-39.441 80.955c-5.975 12.265-20.497 17.717-33.068 12.416l-59.167-24.952" stroke="#143C9B" stroke-width=".856"/><path fill-rule="evenodd" clip-rule="evenodd" d="m81.768 110.351 49.944 22.407a22.855 22.855 0 0 0-.399 4.263c0 12.541 10.157 22.707 22.685 22.707 7.337 0 13.86-3.486 18.006-8.893l77.196 34.633-35.114 37.346-22.695-9.212-20.521 45.842h-60.345c-15.832-.015-28.67-12.846-28.694-28.678l-.063-120.415Z" fill="#3370FF"/><path d="M191.948 120.763c-8.342 0-15.104-9.217-15.104-20.586 0-11.369 6.762-20.585 15.104-20.585 8.342 0 15.105 9.216 15.105 20.585 0 11.369-6.763 20.586-15.105 20.586ZM159.572 115.509c-6.168 0-11.167-5.982-11.167-13.362s4.999-13.362 11.167-13.362c6.167 0 11.166 5.983 11.166 13.362 0 7.38-4.999 13.362-11.166 13.362ZM174.363 105.869l2.053 6.566h-3.5M177.494 102.147H171.4M142.254 112.603a8.806 8.806 0 0 1-6.914 3.335c-4.863 0-8.804-3.921-8.804-8.756 0-4.836 3.941-8.756 8.804-8.756a8.806 8.806 0 0 1 6.947 3.377" stroke="#143C9B" stroke-width=".856"/><path d="M130.974 110.684a5.76 5.76 0 0 1-.671-4.883c.923-2.943 3.976-4.553 6.818-3.597 1.65.555 2.867 1.854 3.416 3.421" stroke="#143C9B" stroke-width=".856"/><path d="M135.001 106.958a5.466 5.466 0 0 1 2.545-4.091M136.098 118.006l3.891 19.574-8.762-3.666M156.29 135.638h16.084c8.274 0 14.981-6.708 14.981-14.982V87.044" stroke="#143C9B" stroke-width=".856"/><path fill-rule="evenodd" clip-rule="evenodd" d="M177.474 58.51c-4.982 0-8.19 1.207-11.507 3.68l-15.855-.02c-11.855-.197-21.626 9.218-21.823 21.03a21.31 21.31 0 0 0 .538 5.126l2.714 11.176c3.021-1.268 5.884-1.188 8.587.238l2.386-9.507c4.77 1.585 9.382 1.98 13.835 1.189 4.452-.793 8.058-2.788 10.816-5.988 3.215 1.967 7.257 7.193 11.606 7.42 23.325 1.216 28.1-11.165 26.751-20.42-1.499-10.282-11.228-13.09-11.562-13.066-5.035.366-12.202-.857-16.486-.857ZM138.35 115.5l-3.501.474 3.501 10.908" fill="#143C9B"/><path d="m168.539 135.637 3.582 15.843M240.209 204.605l34.685-67.264M265.472 63.223h61.565c6.676 0 12.088 6.234 12.088 13.924 0 7.69-5.412 13.924-12.088 13.924h-66.443" stroke="#143C9B" stroke-width=".856"/><path d="M213.659 140.769c24.359 0 44.106-19.757 44.106-44.128s-19.747-44.128-44.106-44.128-44.106 19.757-44.106 44.128 19.747 44.128 44.106 44.128Z" fill="#fff" fill-opacity=".503" stroke="#04D6BA" stroke-width="6.849"/><path fill-rule="evenodd" clip-rule="evenodd" d="m255.419 106.066 77.712 33.182-4.077 9.661-77.712-33.181 4.077-9.662Z" fill="#04D6BA"/><path d="M317.072 82.932a7.496 7.496 0 0 0 7.494-7.498 7.496 7.496 0 0 0-7.494-7.498 7.496 7.496 0 0 0-7.494 7.498 7.496 7.496 0 0 0 7.494 7.498ZM322.424 81.217l5.567 4.713M274.793 137.77l-2.234-7.487a8.561 8.561 0 0 1 2.37-8.714l6.491-6.043a1.713 1.713 0 0 1 2.83 1.658l-2.394 9.851a1.71 1.71 0 0 0 .208 1.307l1.961 3.161M294.592 138.627c-2.878 4.189-6.875 5.585-11.99 4.189" stroke="#143C9B" stroke-width=".856"/><path d="m191.82 214.031 9.421-20.136" stroke="#fff" stroke-width=".856"/><path fill-rule="evenodd" clip-rule="evenodd" d="m156.277 136.056 13.703 6.427-1.522-6.855-12.181.428Z" fill="#143C9B"/><path d="M167.411 123.632c1.656 0 2.998-.672 2.998-1.5s-1.342-1.499-2.998-1.499c-1.655 0-2.997.671-2.997 1.499 0 .828 1.342 1.5 2.997 1.5Z" stroke="#143C9B" stroke-width=".856"/><path clip-rule="evenodd" d="M339.123 160.048c10.049 1.645 17.686 4.573 22.91 8.783 5.138 4.142 7.922 9.497 8.35 16.066-6.566-6.426-16.986-9.282-31.26-8.568v-16.281Z" stroke="#143C9B" stroke-width=".856"/><path fill-rule="evenodd" clip-rule="evenodd" d="M370.382 181.684s11.776 40.701-67.872 38.345c-.405-.012 2.45-5.796 8.565-17.352 38.539 2.428 58.308-4.57 59.307-20.993Z" fill="#14C0FF"/><path fill-rule="evenodd" clip-rule="evenodd" d="M43.228 217.244c0 11.174 6.875 50.09 102.986 43.914 70.013-4.498 93.993 13.496 93.993 13.496l8.565-20.779c-23.41-10.711-45.391-15.352-65.946-13.924-99.528 6.915-132.918-10.787-139.597-34.703v11.996Z" fill="#04D6BA"/><path d="m308.806 137.646-23.607-10.345a1.713 1.713 0 0 1-.898-2.215l3.574-8.754a5.137 5.137 0 0 1 6.848-2.749l22.335 9.965a5.136 5.136 0 0 1 2.676 6.597l-1.164 2.912M289.881 129.63l3.696-9.062M296.732 132.629l3.854-9.425M303.527 135.914l3.745-9.348" stroke="#143C9B" stroke-width=".856"/><defs><filter id="a" x="33.812" y="29.814" width="85.208" height="85.242" filterUnits="userSpaceOnUse" color-interpolation-filters="sRGB"><feFlood flood-opacity="0" result="BackgroundImageFix"/><feBlend in="SourceGraphic" in2="BackgroundImageFix" result="shape"/><feGaussianBlur stdDeviation="4.28" result="effect1_foregroundBlur_741_24930"/></filter><filter id="b" x="54.93" y="66.188" width="12.394" height="12.396" filterUnits="userSpaceOnUse" color-interpolation-filters="sRGB"><feFlood flood-opacity="0" result="BackgroundImageFix"/><feBlend in="SourceGraphic" in2="BackgroundImageFix" result="shape"/><feGaussianBlur stdDeviation="1.284" result="effect1_foregroundBlur_741_24930"/></filter><filter id="c" x="69.44" y="66.188" width="12.394" height="12.396" filterUnits="userSpaceOnUse" color-interpolation-filters="sRGB"><feFlood flood-opacity="0" result="BackgroundImageFix"/><feBlend in="SourceGraphic" in2="BackgroundImageFix" result="shape"/><feGaussianBlur stdDeviation="1.284" result="effect1_foregroundBlur_741_24930"/></filter><filter id="d" x="83.949" y="66.188" width="12.394" height="12.396" filterUnits="userSpaceOnUse" color-interpolation-filters="sRGB"><feFlood flood-opacity="0" result="BackgroundImageFix"/><feBlend in="SourceGraphic" in2="BackgroundImageFix" result="shape"/><feGaussianBlur stdDeviation="1.284" result="effect1_foregroundBlur_741_24930"/></filter></defs></svg>