<svg viewBox="0 0 400 300" fill="none" xmlns="http://www.w3.org/2000/svg"><path d="M301.283 131.154c23.68 9.89 40.81 23.21 47.92 38.32M84.933 138.596c27.89-15.55 69.46-25.41 115.88-25.41 25.99 0 50.46 3.09 71.85 8.53" stroke="#31333A" stroke-width="2.126"/><path fill-rule="evenodd" clip-rule="evenodd" d="m111.812 102.686 21.418-16.077-20.562-27.392-21.417 16.077 20.561 27.392Z" fill="#fff"/><path d="M113.661 59.357 92.243 75.435l19.711 26.258 21.418-16.077-19.711-26.259Z" stroke="#31333A" stroke-width="1.417"/><path fill-rule="evenodd" clip-rule="evenodd" d="m107.486 102.164 24.194-11.483-14.686-30.942-24.193 11.483 14.685 30.942Z" fill="#E7E7E7"/><path d="M117.939 60.075 93.745 71.558l14.078 29.661 24.194-11.483-14.078-29.661Z" stroke="#31333A" stroke-width="1.417"/><path fill-rule="evenodd" clip-rule="evenodd" d="m278.727 185.405 1.86-.95 1.49 14.58s-3.03 6.63-19.47 8.76c-4.59.6-14.17-1.5-15.29-3.81-2.39-4.94-1.9-10.06-1.9-10.06s6.18 2.26 16.05.6c9.88-1.66 17.26-9.12 17.26-9.12Z" fill="#DCDDDD"/><path d="m280.587 184.455-1.86.95s-7.38 7.46-17.26 9.12c-9.87 1.66-16.05-.6-16.05-.6s-.49 5.12 1.9 10.06c1.12 2.31 10.7 4.41 15.29 3.81 16.44-2.13 19.47-8.76 19.47-8.76l-1.49-14.58Z" stroke="#31333A" stroke-width="2.126"/><path fill-rule="evenodd" clip-rule="evenodd" d="m273.532 141.125 15.58-52.06c.88-2.95 4.01-4.64 6.97-3.76l39.88 11.93c2.95.89 4.64 4.02 3.76 6.97l-13.15 43.97-17.48 9.43-31.8-9.51c-2.95-.88-4.64-4.02-3.76-6.97Z" fill="url(#a)"/><path d="m289.112 89.065-15.58 52.06c-.88 2.95.81 6.09 3.76 6.97l31.8 9.51 17.48-9.43 13.15-43.97c.88-2.95-.81-6.08-3.76-6.97l-39.88-11.93c-2.96-.88-6.09.81-6.97 3.76Z" stroke="#31333A" stroke-width="1.417"/><path fill-rule="evenodd" clip-rule="evenodd" d="M311.908 148.196a4.557 4.557 0 0 1 5.67-3.06l9.089 2.72-17.479 9.43 2.72-9.09Z" fill="#E7E7E7"/><path d="M317.578 145.136c-2.41-.72-4.95.65-5.67 3.06l-2.72 9.09 17.479-9.43-9.089-2.72Z" stroke="#31333A" stroke-width="1.417"/><path fill-rule="evenodd" clip-rule="evenodd" d="m296.23 99.668 31.721 9.489c.259.077.53.043.766-.084a1.004 1.004 0 0 0-.19-1.842l-31.721-9.488a1.004 1.004 0 0 0-1.171 1.434c.128.237.336.414.595.491Z" fill="#EEEEEF"/><path fill-rule="evenodd" clip-rule="evenodd" d="m296.23 99.668 14.898 4.456a.999.999 0 0 0 .766-.083.992.992 0 0 0 .481-.598 1.002 1.002 0 0 0-.671-1.244l-14.898-4.456a1.004 1.004 0 0 0-1.171 1.434c.128.237.336.414.595.491Z" fill="#B3B3B3"/><path fill-rule="evenodd" clip-rule="evenodd" d="m292.684 111.521 31.721 9.488c.259.078.53.044.766-.084a1.004 1.004 0 0 0-.19-1.842l-31.721-9.488a1.004 1.004 0 0 0-.576 1.926Z" fill="#EEEEEF"/><path fill-rule="evenodd" clip-rule="evenodd" d="m292.684 111.521 7.865 2.353a1.006 1.006 0 0 0 .576-1.926l-7.865-2.353a1.004 1.004 0 0 0-.576 1.926Z" fill="#B3B3B3"/><path fill-rule="evenodd" clip-rule="evenodd" d="m290.193 119.85 31.721 9.488c.259.078.53.044.766-.084a.984.984 0 0 0 .481-.597 1.001 1.001 0 0 0-.671-1.244l-31.721-9.489a1.004 1.004 0 0 0-.576 1.926Z" fill="#EEEEEF"/><path fill-rule="evenodd" clip-rule="evenodd" d="m290.193 119.85 26.595 7.955c.259.077.53.044.767-.084a1.004 1.004 0 0 0-.191-1.842l-26.595-7.955a1.004 1.004 0 0 0-.576 1.926Z" fill="#B3B3B3"/><path fill-rule="evenodd" clip-rule="evenodd" d="m286.648 131.703 31.721 9.488c.259.077.53.043.766-.084a1.004 1.004 0 0 0-.19-1.842l-31.721-9.488a1.003 1.003 0 0 0-1.171 1.435c.128.236.336.413.595.491Z" fill="#EEEEEF"/><path fill-rule="evenodd" clip-rule="evenodd" d="m286.488 131.655 17.963 5.373c.259.077.53.043.766-.084a1.004 1.004 0 0 0-.19-1.842l-17.963-5.373a1.004 1.004 0 0 0-1.171 1.435c.128.236.336.413.595.491Z" fill="#B3B3B3"/><path fill-rule="evenodd" clip-rule="evenodd" d="M277.195 193.098c-1.27 0-2.31 1.04-2.31 2.31a2.32 2.32 0 0 0 2.31 2.32c1.28 0 2.32-1.04 2.32-2.32a2.32 2.32 0 0 0-2.32-2.31Z" fill="#B5B5B6"/><path fill-rule="evenodd" clip-rule="evenodd" d="M154.161 192.75s1.52 7.29-.21 12.5c-.81 2.43-10.42 3.47-15.05 3.47-16.57 0-20.83-9.26-20.83-9.26v-11.57l1.96.7s8.28 6.45 18.29 6.82c10.01.38 15.84-2.66 15.84-2.66Z" fill="#DCDDDD"/><path d="M153.951 205.25c1.73-5.21.21-12.5.21-12.5s-5.83 3.04-15.84 2.66c-10.01-.37-18.29-6.82-18.29-6.82l-1.96-.7v11.57s4.26 9.26 20.83 9.26c4.63 0 14.24-1.04 15.05-3.47Z" stroke="#31333A" stroke-width="2.126"/><path d="M128.567 194.638c.67-.77 1.38-1.52 2.11-2.25 10.29-10.27 24.45-16.65 40.05-16.65h63.65c14.72 0 28.17 5.68 38.29 14.97" stroke="#31333A" stroke-width="2.126"/><path fill-rule="evenodd" clip-rule="evenodd" d="M198.745 187.263h2.99c2.52 0 4.94-1 6.72-2.78a9.507 9.507 0 0 0 2.78-6.72v-7.57c0-2.52-1-4.94-2.78-6.72a9.507 9.507 0 0 0-6.72-2.78h-2.99c-2.52 0-4.94 1-6.72 2.78a9.507 9.507 0 0 0-2.78 6.72v7.57c0 2.52 1 4.94 2.78 6.72a9.507 9.507 0 0 0 6.72 2.78Z" fill="#fff"/><path d="M212.296 161.756h-21.988v24.443h21.988v-24.443ZM112.24 231.652c-2.15-.73-4.26-1.48-6.32-2.25-.42-.16-.84-.32-1.25-.48-15.42-5.9-28.34-13.21-37.91-21.51M259.019 240.002c-15.48 2.52-41.49 4.94-58.78 4.94-18.54 0-39.27-2.06-55.7-4.94M327.645 212.227c-8.99 6.53-20.15 12.32-33 17.15-1.82.68-3.66 1.34-5.54 1.98" stroke="#31333A" stroke-width="2.126"/><path d="M352.845 185.229c0 39.79-68.06 72.04-152.03 72.04-35.63 0-68.41-5.81-94.32-15.54-15.97-5.99-29.33-13.47-39.16-21.99-11.83-10.25-18.55-22.01-18.55-34.51 0-6.6 1.87-13 5.38-19.07" stroke="#31333A" stroke-width="2.126"/><path d="M196.242 188.074c-2.79 4.36-5.9 8.51-9.32 12.39-.24.28-.57.59-.93.51-.19-.04-.34-.17-.48-.3-6.5-6.1-10.57-14.73-11.14-23.63M202.146 188.074c2.78 4.36 5.9 8.51 9.31 12.39.25.28.57.59.94.51.18-.04.34-.17.48-.3 6.5-6.1 10.57-14.73 11.14-23.63" stroke="#31333A" stroke-width="2"/><path fill-rule="evenodd" clip-rule="evenodd" d="M105.456 123.748c-2.76 0-5 2.24-5 5s2.24 5 5 5 5-2.24 5-5-2.24-5-5-5Z" fill="#31333A"/><path fill-rule="evenodd" clip-rule="evenodd" d="M123.275 195.412c-1.27 0-2.31 1.04-2.31 2.31a2.32 2.32 0 0 0 2.31 2.32c1.28 0 2.32-1.04 2.32-2.32a2.32 2.32 0 0 0-2.32-2.31Z" fill="#B5B5B6"/><path fill-rule="evenodd" clip-rule="evenodd" d="m74.221 201.173-8.7 10.79-4.99-12.93 13.69 2.14Z" fill="#5578EC"/><path d="m65.521 211.963 8.7-10.79-13.69-2.14 4.99 12.93Z" stroke="#3351E5" stroke-width="2.126"/><path fill-rule="evenodd" clip-rule="evenodd" d="M349.203 165.647c-2.76 0-5 2.24-5 5s2.24 5 5 5 5-2.24 5-5-2.24-5-5-5Z" fill="#fff"/><path d="M349.203 165.647c-2.76 0-5 2.24-5 5s2.24 5 5 5 5-2.24 5-5-2.24-5-5-5Z" stroke="#31333A" stroke-width="2.126"/><path fill-rule="evenodd" clip-rule="evenodd" d="m198.481 263.681-1.44-7.11c-.09-.45-.39-.82-.81-.99l-6.67-2.85c-1.05-.45-1.13-1.9-.14-2.46l6.32-3.57c.39-.22.65-.63.69-1.08l.65-7.22c.1-1.14 1.46-1.67 2.3-.9l5.34 4.91c.33.31.8.43 1.24.33l7.07-1.62c1.11-.26 2.03.87 1.56 1.91l-3.01 6.6c-.19.41-.17.89.07 1.28l3.72 6.22c.59.98-.2 2.21-1.33 2.08l-7.21-.83c-.45-.05-.9.12-1.2.46l-4.77 5.47c-.74.86-2.15.49-2.38-.63Z" fill="#fff"/><path d="m197.041 256.571 1.44 7.11c.23 1.12 1.64 1.49 2.38.63l4.77-5.47c.3-.34.75-.51 1.2-.46l7.21.83c1.13.13 1.92-1.1 1.33-2.08l-3.72-6.22c-.24-.39-.26-.87-.07-1.28l3.01-6.6c.47-1.04-.45-2.17-1.56-1.91l-7.07 1.62c-.44.1-.91-.02-1.24-.33l-5.34-4.91c-.84-.77-2.2-.24-2.3.9l-.65 7.22c-.04.45-.3.86-.69 1.08l-6.32 3.57c-.99.56-.91 2.01.14 2.46l6.67 2.85c.42.17.72.54.81.99Z" stroke="#31333A" stroke-width="2.126"/><path fill-rule="evenodd" clip-rule="evenodd" d="M242.265 148.879c-9.61 12.18-25.24 20.11-42.89 20.11-4.71 0-9.28-.57-13.63-1.63-.66-.16-1.32-.34-1.97-.52-.05-.01-.1-.03-.15-.04-11.94-3.54-22.18-10.97-29.26-20.81a9.95 9.95 0 0 0-.28-.41c-4.86-7.35-7.66-15.99-7.66-25.21 0-3.19.34-6.31.98-9.33a70.723 70.723 0 0 0 19.94 2.79c14.61 0 27.89-4.26 37.72-11.2 5.08-3.48 9.35-8 12.56-13.25.02-.03.04-.06.07-.1.55-.81 1.65-1.01 2.47-.45 19.45 13.25 28.31 37.39 22.1 60.05Z" fill="#fff"/><path d="M199.375 168.989c17.65 0 33.28-7.93 42.89-20.11 6.21-22.66-2.65-46.8-22.1-60.05-.82-.56-1.92-.36-2.47.45-.03.04-.05.07-.07.1a43.632 43.632 0 0 1-12.56 13.25c-9.83 6.94-23.11 11.2-37.72 11.2-6.75.03-13.47-.92-19.94-2.79-.64 3.02-.98 6.14-.98 9.33 0 9.22 2.8 17.86 7.66 25.21.1.14.19.27.28.41 7.08 9.84 17.32 17.27 29.26 20.81.05.01.1.03.15.04.65.18 1.31.36 1.97.52 4.35 1.06 8.92 1.63 13.63 1.63Z" stroke="#31333A" stroke-width="2.126"/><path fill-rule="evenodd" clip-rule="evenodd" d="M145.035 145.798s-13.37 4.36-13.08-3.87c.3-8.24 4.07-12.69 7.66-14.83 3.58-2.13 4.84-1.35 4.84-1.35l.58 20.05Z" fill="#fff"/><path d="M131.955 141.928c-.29 8.23 13.08 3.87 13.08 3.87l-.58-20.05s-1.26-.78-4.84 1.35c-3.59 2.14-7.36 6.59-7.66 14.83Z" stroke="#31333A" stroke-width="2.126"/><path fill-rule="evenodd" clip-rule="evenodd" d="M221.142 64.028h.01c19.82 8.08 33.77 27.44 33.77 50.04 0 13.27-4.81 25.43-12.82 34.84 1.35-4.7 2.07-9.66 2.07-14.79 0-17.94-8.79-33.83-22.33-43.66a3.063 3.063 0 0 0-4.38.82c-2.87 4.47-6.81 8.47-11.58 11.83-9.63 6.79-22.6 10.96-36.88 10.96a72.4 72.4 0 0 1-8-.46 61.681 61.681 0 0 0-3.71 21.15c0 4.67.51 9.21 1.47 13.55-8.28-9.49-13.3-21.87-13.3-35.42 0-.95.03-1.91.08-2.85a62.25 62.25 0 0 1-3.75-1.49c-1.48-.66-2.92-1.36-4.31-2.11-4.6-2.5-4.23-9.21.55-11.34 4.12-1.83 8.58-3.27 13.31-4.23a54.446 54.446 0 0 1 49.17-30.86c7.3 0 14.27 1.43 20.63 4.02Z" fill="#31333A"/><path fill-rule="evenodd" clip-rule="evenodd" d="M140.741 197.481c-13.94.75-25.85-9.94-26.6-23.89-.75-13.94 9.94-25.85 23.89-26.6 10.99-.59 20.72 5.93 24.71 15.56l.83-.68c3.91-3.15 7.48.09 10.64 4 3.15 3.9 1.64 7.69-2.26 10.85l-12.77 11.24c-4.35 5.46-10.92 9.12-18.44 9.52Z" fill="#F1F3F5"/><path d="M114.141 173.591c.75 13.95 12.66 24.64 26.6 23.89 7.52-.4 14.09-4.06 18.44-9.52l12.77-11.24c3.9-3.16 5.41-6.95 2.26-10.85-3.16-3.91-6.73-7.15-10.64-4l-.83.68c-3.99-9.63-13.72-16.15-24.71-15.56-13.95.75-24.64 12.66-23.89 26.6Z" stroke="#000" stroke-width="1.435"/><path fill-rule="evenodd" clip-rule="evenodd" d="M175.894 169.831c.09 1.62-.53 3.19-1.7 4.66-.06.08-.13.16-.19.24l-.2.23c-.12.14-.25.27-.37.4-.45.46-.94.92-1.48 1.36l-12.77 11.24c-4.35 5.46-10.92 9.12-18.44 9.52-13.94.75-25.85-9.94-26.6-23.89-.75-13.94 9.94-25.85 23.89-26.6 10.89-.59 20.53 5.81 24.59 15.28.5-.33 4.36-1.71 5.76-1.38 2.28.52 4.52 1.49 5.97 3.55a8.471 8.471 0 0 1 1.54 5.39Z" fill="#fff"/><path d="M174.194 174.491c1.17-1.47 1.79-3.04 1.7-4.66.11-1.85-.39-3.76-1.54-5.39-1.45-2.06-3.69-3.03-5.97-3.55-1.4-.33-5.26 1.05-5.76 1.38-4.06-9.47-13.7-15.87-24.59-15.28-13.95.75-24.64 12.66-23.89 26.6.75 13.95 12.66 24.64 26.6 23.89 7.52-.4 14.09-4.06 18.44-9.52l12.77-11.24c.54-.44 1.03-.9 1.48-1.36.12-.13.25-.26.37-.4l.2-.23c.06-.08.13-.16.19-.24Z" stroke="#31333A" stroke-width="2.126"/><path fill-rule="evenodd" clip-rule="evenodd" d="M140.337 162.256a7.183 7.183 0 0 1-5.87 8.29 7.178 7.178 0 0 1-8.28-5.87l-2.62-15.32c-.66-3.91 1.96-7.62 5.87-8.29 3.91-.66 7.62 1.96 8.29 5.87l2.61 15.32Z" fill="#fff"/><path d="M134.467 170.546a7.183 7.183 0 0 0 5.87-8.29l-2.61-15.32c-.67-3.91-4.38-6.53-8.29-5.87-3.91.67-6.53 4.38-5.87 8.29l2.62 15.32a7.178 7.178 0 0 0 8.28 5.87Z" stroke="#31333A" stroke-width="2.126"/><path fill-rule="evenodd" clip-rule="evenodd" d="M267.069 141.928c.29 8.23-13.08 3.87-13.08 3.87l.58-20.05s1.26-.78 4.85 1.35c3.58 2.14 7.36 6.59 7.65 14.83Z" fill="#fff"/><path d="M253.989 145.798s13.37 4.36 13.08-3.87c-.29-8.24-4.07-12.69-7.65-14.83-3.59-2.13-4.85-1.35-4.85-1.35l-.58 20.05Z" stroke="#31333A" stroke-width="2.126"/><path fill-rule="evenodd" clip-rule="evenodd" d="M236.288 162.551c3.99-9.63 13.72-16.15 24.71-15.56 13.94.75 24.64 12.66 23.89 26.6-.75 13.95-12.66 24.64-26.6 23.89-7.52-.4-14.1-4.06-18.44-9.52l-15.82-11.94c-3.91-3.15-4.52-8.88-1.36-12.78 3.15-3.91 8.88-4.52 12.78-1.37l.84.68Z" fill="#fff"/><path d="M260.998 146.991c-10.99-.59-20.72 5.93-24.71 15.56l-.84-.68c-3.9-3.15-9.63-2.54-12.78 1.37-3.16 3.9-2.55 9.63 1.36 12.78l15.82 11.94c4.34 5.46 10.92 9.12 18.44 9.52 13.94.75 25.85-9.94 26.6-23.89.75-13.94-9.95-25.85-23.89-26.6Z" stroke="#31333A" stroke-width="2.126"/><path fill-rule="evenodd" clip-rule="evenodd" d="M269.583 141.066c3.91.67 6.54 4.38 5.87 8.29l-2.61 15.32c-.6 3.5-3.63 5.97-7.07 5.97-.4 0-.81-.03-1.22-.1-3.91-.67-6.53-4.38-5.87-8.29l2.62-15.32c.66-3.91 4.38-6.53 8.28-5.87Z" fill="#fff"/><path d="M275.453 149.356a7.183 7.183 0 0 0-5.87-8.29c-3.9-.66-7.62 1.96-8.28 5.87l-2.62 15.32c-.66 3.91 1.96 7.62 5.87 8.29.41.07.82.1 1.22.1 3.44 0 6.47-2.47 7.07-5.97l2.61-15.32Z" stroke="#31333A" stroke-width="2.126"/><path fill-rule="evenodd" clip-rule="evenodd" d="M279.689 150.631c3.27.56 5.47 3.66 4.91 6.93l-2.19 12.82c-.5 2.93-3.04 5-5.91 5-.34 0-.68-.03-1.02-.09a6.004 6.004 0 0 1-4.91-6.93l2.18-12.82a6.02 6.02 0 0 1 6.94-4.91Z" fill="#fff"/><path d="M284.599 157.561a6.004 6.004 0 0 0-4.91-6.93 6.02 6.02 0 0 0-6.94 4.91l-2.18 12.82a6.004 6.004 0 0 0 4.91 6.93c.34.06.68.09 1.02.09 2.87 0 5.41-2.07 5.91-5l2.19-12.82Z" stroke="#31333A" stroke-width="2.126"/><path fill-rule="evenodd" clip-rule="evenodd" d="m255.658 178.187-20.21-16.31c-3.9-3.16-9.63-2.55-12.78 1.36a9.09 9.09 0 0 0 1.36 12.79l15.82 11.93h18.78c1.07-3.45.01-7.36-2.97-9.77Z" fill="#fff"/><path d="m255.658 178.187-20.21-16.31c-3.9-3.16-9.63-2.55-12.78 1.36a9.09 9.09 0 0 0 1.36 12.79l15.82 11.93h18.78c1.07-3.45.01-7.36-2.97-9.77Z" stroke="#31333A" stroke-width="2.126"/><path d="M258.623 187.955c1.08-3.45.01-7.36-2.97-9.77" stroke="#31333A" stroke-width="1.435"/><path fill-rule="evenodd" clip-rule="evenodd" d="M128.46 168.36a6.004 6.004 0 0 1-4.91 6.93c-.34.06-.68.09-1.02.09a6.01 6.01 0 0 1-5.92-5l-2.18-12.82a6.004 6.004 0 1 1 11.84-2.02l2.19 12.82Z" fill="#fff"/><path d="M123.55 175.29a6.004 6.004 0 0 0 4.91-6.93l-2.19-12.82a6.004 6.004 0 1 0-11.84 2.02l2.18 12.82c.5 2.93 3.04 5 5.92 5 .34 0 .68-.03 1.02-.09Z" stroke="#31333A" stroke-width="2.126"/><path fill-rule="evenodd" clip-rule="evenodd" d="M209.048 149.17c-4.85-5.02-14.67-5.02-19.52 0h-29.69v-21.85h81.96v21.85h-32.75Z" fill="#31333A"/><path fill-rule="evenodd" clip-rule="evenodd" d="M235.222 116.955c-15.45 0-27.97 12.52-27.97 27.97s12.52 27.98 27.97 27.98 27.98-12.53 27.98-27.98c0-15.45-12.53-27.97-27.98-27.97Z" fill="#31333A"/><path fill-rule="evenodd" clip-rule="evenodd" d="M235.221 122.914c-12.15 0-22.01 9.86-22.01 22.01 0 12.16 9.86 22.02 22.01 22.02 12.16 0 22.02-9.86 22.02-22.02 0-12.15-9.86-22.01-22.02-22.01Z" fill="#5578EC"/><path d="M235.221 122.914c-12.15 0-22.01 9.86-22.01 22.01 0 12.16 9.86 22.02 22.01 22.02 12.16 0 22.02-9.86 22.02-22.02 0-12.15-9.86-22.01-22.02-22.01Z" stroke="#3351E5" stroke-width="2.126"/><path fill-rule="evenodd" clip-rule="evenodd" d="M163.977 116.955c-15.45 0-27.97 12.52-27.97 27.97s12.52 27.98 27.97 27.98 27.98-12.53 27.98-27.98c0-15.45-12.53-27.97-27.98-27.97Z" fill="#31333A"/><path fill-rule="evenodd" clip-rule="evenodd" d="M163.977 122.914c-12.15 0-22.01 9.86-22.01 22.01 0 12.16 9.86 22.02 22.01 22.02 12.16 0 22.02-9.86 22.02-22.02 0-12.15-9.86-22.01-22.02-22.01Z" fill="#5578EC"/><path d="M163.977 122.914c-12.15 0-22.01 9.86-22.01 22.01 0 12.16 9.86 22.02 22.01 22.02 12.16 0 22.02-9.86 22.02-22.02 0-12.15-9.86-22.01-22.02-22.01Z" stroke="#3351E5" stroke-width="2.126"/><path fill-rule="evenodd" clip-rule="evenodd" d="m159.186 187.955 8.59-7.64 4.51-3.98a8.543 8.543 0 0 0 2.07-11.9c-2.72-3.85-8.05-4.78-11.9-2.06l-19.93 14.04a8.546 8.546 0 0 0-3.39 8.97l20.05 2.57Z" fill="#fff"/><path d="m159.186 187.955 8.59-7.64 4.51-3.98a8.543 8.543 0 0 0 2.07-11.9c-2.72-3.85-8.05-4.78-11.9-2.06l-19.93 14.04a8.546 8.546 0 0 0-3.39 8.97l20.05 2.57ZM118.798 187.956s-4.85 31.77-4.46 36.61c.39 4.85 5.24 12.21 13.37 13.95 8.14 1.75 18.81-2.51 18.81-2.51M280.673 187.311s4.62 30.68 4.23 35.52c-.39 4.85-5.23 12.21-13.37 13.95-8.14 1.75-21.95-3.2-21.95-3.2M196.159 158.32s2.83-.76 4.94-.03" stroke="#31333A" stroke-width="2.126"/><path fill-rule="evenodd" clip-rule="evenodd" d="M155.679 142.176c-1.27 0-2.31 1.04-2.31 2.31a2.32 2.32 0 0 0 2.31 2.32c1.28 0 2.32-1.04 2.32-2.32a2.32 2.32 0 0 0-2.32-2.31ZM163.202 142.176c-1.27 0-2.31 1.04-2.31 2.31a2.32 2.32 0 0 0 2.31 2.32c1.28 0 2.32-1.04 2.32-2.32a2.32 2.32 0 0 0-2.32-2.31ZM170.724 142.176c-1.27 0-2.31 1.04-2.31 2.31a2.32 2.32 0 0 0 2.31 2.32c1.28 0 2.32-1.04 2.32-2.32a2.32 2.32 0 0 0-2.32-2.31ZM228.588 142.176c-1.27 0-2.31 1.04-2.31 2.31a2.32 2.32 0 0 0 2.31 2.32c1.28 0 2.32-1.04 2.32-2.32a2.32 2.32 0 0 0-2.32-2.31ZM236.111 142.176c-1.27 0-2.31 1.04-2.31 2.31a2.32 2.32 0 0 0 2.31 2.32c1.28 0 2.32-1.04 2.32-2.32a2.32 2.32 0 0 0-2.32-2.31ZM243.633 142.176c-1.27 0-2.31 1.04-2.31 2.31a2.32 2.32 0 0 0 2.31 2.32c1.28 0 2.32-1.04 2.32-2.32a2.32 2.32 0 0 0-2.32-2.31Z" fill="#fff"/><path fill-rule="evenodd" clip-rule="evenodd" d="m311.1 240.913 3.418-7.913-7.913-3.419-3.418 7.913 7.913 3.419Z" fill="#5578EC"/><path d="m308.001 229.03-3.417 7.909 5.958 2.575 3.417-7.91-5.958-2.574Z" stroke="#3351E5" stroke-width="2.126"/><path d="M148.504 231.652c-.97 2.36-1.64 4.77-1.99 7.2M249.278 232.802c.97 2.36 1.63 4.77 1.98 7.2" stroke="#31333A" stroke-width="2"/><path fill-rule="evenodd" clip-rule="evenodd" d="m94.097 174.65-5.31 3.97-13.35-14.6a19.848 19.848 0 0 1-14.52 1.94c-10.64-2.63-17.15-13.28-14.55-23.79 2.6-10.5 13.33-16.89 23.96-14.26 10.63 2.63 17.14 13.28 14.54 23.79-.74 3.02-2.16 5.69-4.05 7.91l11.78 13.34.58-2.37 1.7.9-.78 3.17Z" fill="#CCC"/><path fill-rule="evenodd" clip-rule="evenodd" d="M84.355 149.886c-.58 2.34-1.62 4.45-3.01 6.27l13.53 15.32-5.3 3.98-13.46-14.73c-4.18 2.44-9.41 3.3-14.64 2.01-10.26-2.54-16.64-12.4-14.26-22.04 2.38-9.63 12.63-15.38 22.88-12.84 10.26 2.54 16.65 12.4 14.26 22.03Z" fill="#E7E7E7"/><path d="M50.163 135.056a19.25 19.25 0 0 0-3.37 7.06c-2.6 10.51 3.91 21.16 14.55 23.79a19.85 19.85 0 0 0 14.52-1.95l13.35 14.61 5.31-3.97.78-3.18-12.44-14.08c1.08-1.72 1.92-3.62 2.43-5.7 2.6-10.5-3.91-21.15-14.54-23.78l-.11-.03-.12-.03c-8.07-2-16.13 1.14-20.36 7.26Z" stroke="#31333A" stroke-width="2"/><path fill-rule="evenodd" clip-rule="evenodd" d="M52.197 141.933c-1.765 7.135 2.892 14.416 10.396 16.273 7.504 1.856 15.02-2.414 16.784-9.549 1.763-7.125-2.892-14.417-10.396-16.273-7.504-1.856-15.022 2.424-16.784 9.549Z" fill="#fff"/><path fill-rule="evenodd" clip-rule="evenodd" d="M54.4 153.487c-2.332-3.089-3.311-7.068-2.338-11.002 1.763-7.125 9.28-11.405 16.784-9.549 4.62 1.143 8.16 4.345 9.787 8.3-1.897-2.514-4.69-4.439-8.056-5.272-7.503-1.856-15.021 2.424-16.784 9.549a12.788 12.788 0 0 0 .608 7.974Z" fill="#E7E7E7"/><path d="M52.197 141.933c-1.765 7.135 2.892 14.416 10.396 16.273 7.504 1.856 15.02-2.414 16.784-9.549 1.763-7.125-2.892-14.417-10.396-16.273-7.504-1.856-15.022 2.424-16.784 9.549Z" stroke="#31333A" stroke-width="2"/><path d="M64.985 153.129s-2.94.05-4.81-1.16c-1.87-1.21-2.13-2.88-2.13-2.88" stroke="#31333A" stroke-width="2.126"/><path fill-rule="evenodd" clip-rule="evenodd" d="M199.055 131.799c-1.08 0-1.95.87-1.95 1.95s.87 1.95 1.95 1.95 1.95-.87 1.95-1.95-.87-1.95-1.95-1.95Z" fill="#666"/><path fill-rule="evenodd" clip-rule="evenodd" d="M148.786 104.46c-5.46 0-9.88 3.08-9.88 6.88 0 3.81 4.42 6.89 9.88 6.89 5.45 0 9.87-3.08 9.87-6.89 0-3.8-4.42-6.88-9.87-6.88Z" fill="#31333A"/><defs><linearGradient id="a" x1="266.63" y1="-416.17" x2="267.419" y2="-481.705" gradientUnits="userSpaceOnUse"><stop stop-color="#fff"/><stop offset="1" stop-color="#F2F3F5"/></linearGradient></defs></svg>